<?xml version="1.0" encoding="UTF-8" standalone="no"?>
<!-- Created with Inkscape (http://www.inkscape.org/) -->

<svg
   xmlns:dc="http://purl.org/dc/elements/1.1/"
   xmlns:cc="http://creativecommons.org/ns#"
   xmlns:rdf="http://www.w3.org/1999/02/22-rdf-syntax-ns#"
   xmlns:svg="http://www.w3.org/2000/svg"
   xmlns="http://www.w3.org/2000/svg"
   xmlns:sodipodi="http://sodipodi.sourceforge.net/DTD/sodipodi-0.dtd"
   xmlns:inkscape="http://www.inkscape.org/namespaces/inkscape"
   width="177.21571mm"
   height="17.473524mm"
   viewBox="0 0 627.92969 61.914061"
   id="svg2"
   version="1.1"
   inkscape:version="0.91 r13725"
   sodipodi:docname="drawing-2.svg">
  <defs
     id="defs4" />
  <sodipodi:namedview
     id="base"
     pagecolor="#ffffff"
     bordercolor="#666666"
     borderopacity="1.0"
     inkscape:pageopacity="0.0"
     inkscape:pageshadow="2"
     inkscape:zoom="0.35"
     inkscape:cx="810.72545"
     inkscape:cy="-266.82657"
     inkscape:document-units="px"
     inkscape:current-layer="layer1"
     showgrid="false"
     inkscape:window-width="1301"
     inkscape:window-height="744"
     inkscape:window-x="65"
     inkscape:window-y="24"
     inkscape:window-maximized="1"
     fit-margin-top="0"
     fit-margin-left="0"
     fit-margin-right="0"
     fit-margin-bottom="0" />
  <metadata
     id="metadata7">
    <rdf:RDF>
      <cc:Work
         rdf:about="">
        <dc:format>image/svg+xml</dc:format>
        <dc:type
           rdf:resource="http://purl.org/dc/dcmitype/StillImage" />
        <dc:title></dc:title>
      </cc:Work>
    </rdf:RDF>
  </metadata>
  <g
     inkscape:label="Layer 1"
     inkscape:groupmode="layer"
     id="layer1"
     transform="translate(-67.851562,-197.03485)">
    <g
       style="font-style:normal;font-variant:normal;font-weight:normal;font-stretch:normal;font-size:40px;line-height:125%;font-family:'DejaVu Sans';-inkscape-font-specification:'DejaVu Sans, Normal';text-align:start;letter-spacing:0px;word-spacing:0px;writing-mode:lr-tb;text-anchor:start;fill:#000000;fill-opacity:1;stroke:none;stroke-width:1px;stroke-linecap:butt;stroke-linejoin:miter;stroke-opacity:1"
       id="flowRoot3336">
      <path
         d="m 67.851562,199.49579 11.757813,0 14.882812,39.6875 14.960943,-39.6875 11.75781,0 0,58.32031 -7.69531,0 0,-51.21093 -15.039068,40 -7.929687,0 -15.039063,-40 0,51.21093 -7.65625,0 0,-58.32031 z"
         style="font-style:normal;font-variant:normal;font-weight:normal;font-stretch:normal;font-size:80px;line-height:125%;font-family:'DejaVu Sans';-inkscape-font-specification:'DejaVu Sans, Normal';text-align:start;writing-mode:lr-tb;text-anchor:start;fill:#ffffff"
         id="path3398" />
      <path
         d="m 153.55469,219.10517 q -5.78125,0 -9.14063,4.53125 -3.35937,4.49218 -3.35937,12.34375 0,7.85156 3.32031,12.38281 3.35937,4.49219 9.17969,4.49219 5.74218,0 9.10156,-4.53125 3.35937,-4.53125 3.35937,-12.34375 0,-7.77344 -3.35937,-12.30469 -3.35938,-4.57031 -9.10156,-4.57031 z m 0,-6.09375 q 9.375,0 14.72656,6.09375 5.35156,6.09375 5.35156,16.875 0,10.74218 -5.35156,16.875 -5.35156,6.09375 -14.72656,6.09375 -9.41407,0 -14.76563,-6.09375 -5.3125,-6.13282 -5.3125,-16.875 0,-10.78125 5.3125,-16.875 5.35156,-6.09375 14.76563,-6.09375 z"
         style="font-style:normal;font-variant:normal;font-weight:normal;font-stretch:normal;font-size:80px;line-height:125%;font-family:'DejaVu Sans';-inkscape-font-specification:'DejaVu Sans, Normal';text-align:start;writing-mode:lr-tb;text-anchor:start;fill:#ffffff"
         id="path3400" />
      <path
         d="m 221.875,231.40985 0,26.40625 -7.1875,0 0,-26.17187 q 0,-6.21094 -2.42188,-9.29688 -2.42187,-3.08593 -7.26562,-3.08593 -5.82031,0 -9.17969,3.71093 -3.35937,3.71094 -3.35937,10.11719 l 0,24.72656 -7.22657,0 0,-60.78125 7.22657,0 0,23.82813 q 2.57812,-3.94531 6.05468,-5.89844 3.51563,-1.95312 8.08594,-1.95312 7.53906,0 11.40625,4.6875 3.86719,4.64843 3.86719,13.71093 z"
         style="font-style:normal;font-variant:normal;font-weight:normal;font-stretch:normal;font-size:80px;line-height:125%;font-family:'DejaVu Sans';-inkscape-font-specification:'DejaVu Sans, Normal';text-align:start;writing-mode:lr-tb;text-anchor:start;fill:#ffffff"
         id="path3402" />
      <path
         d="m 256.17187,235.82392 q -8.71093,0 -12.07031,1.99218 -3.35937,1.99219 -3.35937,6.79688 0,3.82812 2.5,6.09375 2.53906,2.22656 6.875,2.22656 5.97656,0 9.57031,-4.21875 3.63281,-4.25781 3.63281,-11.28906 l 0,-1.60156 -7.14844,0 z m 14.33594,-2.96875 0,24.96093 -7.1875,0 0,-6.64062 q -2.46094,3.98437 -6.13281,5.89844 -3.67188,1.875 -8.98438,1.875 -6.71875,0 -10.70312,-3.75 -3.94531,-3.78907 -3.94531,-10.11719 0,-7.38281 4.92187,-11.13281 4.96094,-3.75 14.76563,-3.75 l 10.07812,0 0,-0.70313 q 0,-4.96094 -3.28125,-7.65625 -3.24219,-2.73437 -9.14062,-2.73437 -3.75,0 -7.30469,0.89843 -3.55469,0.89844 -6.83594,2.69532 l 0,-6.64063 q 3.94531,-1.52344 7.65625,-2.26562 3.71094,-0.78125 7.22656,-0.78125 9.49219,0 14.17969,4.92187 4.6875,4.92188 4.6875,14.92188 z"
         style="font-style:normal;font-variant:normal;font-weight:normal;font-stretch:normal;font-size:80px;line-height:125%;font-family:'DejaVu Sans';-inkscape-font-specification:'DejaVu Sans, Normal';text-align:start;writing-mode:lr-tb;text-anchor:start;fill:#ffffff"
         id="path3404" />
      <path
         d="m 319.41406,222.46454 q 2.69531,-4.84375 6.44531,-7.14844 3.75,-2.30468 8.82813,-2.30468 6.83594,0 10.54687,4.80468 3.71094,4.76563 3.71094,13.59375 l 0,26.40625 -7.22656,0 0,-26.17187 q 0,-6.28906 -2.22656,-9.33594 -2.22657,-3.04687 -6.79688,-3.04687 -5.58594,0 -8.82812,3.71093 -3.24219,3.71094 -3.24219,10.11719 l 0,24.72656 -7.22656,0 0,-26.17187 q 0,-6.32813 -2.22657,-9.33594 -2.22656,-3.04687 -6.875,-3.04687 -5.50781,0 -8.75,3.75 -3.24218,3.71093 -3.24218,10.07812 l 0,24.72656 -7.22657,0 0,-43.75 7.22657,0 0,6.79688 q 2.46093,-4.02344 5.89843,-5.9375 3.4375,-1.91406 8.16407,-1.91406 4.76562,0 8.08593,2.42187 3.35938,2.42188 4.96094,7.03125 z"
         style="font-style:normal;font-variant:normal;font-weight:normal;font-stretch:normal;font-size:80px;line-height:125%;font-family:'DejaVu Sans';-inkscape-font-specification:'DejaVu Sans, Normal';text-align:start;writing-mode:lr-tb;text-anchor:start;fill:#ffffff"
         id="path3406" />
      <path
         d="m 397.38281,222.46454 q 2.69531,-4.84375 6.44531,-7.14844 3.75,-2.30468 8.82813,-2.30468 6.83594,0 10.54687,4.80468 3.71094,4.76563 3.71094,13.59375 l 0,26.40625 -7.22656,0 0,-26.17187 q 0,-6.28906 -2.22656,-9.33594 -2.22657,-3.04687 -6.79688,-3.04687 -5.58594,0 -8.82812,3.71093 -3.24219,3.71094 -3.24219,10.11719 l 0,24.72656 -7.22656,0 0,-26.17187 q 0,-6.32813 -2.22657,-9.33594 -2.22656,-3.04687 -6.875,-3.04687 -5.50781,0 -8.75,3.75 -3.24218,3.71093 -3.24218,10.07812 l 0,24.72656 -7.22657,0 0,-43.75 7.22657,0 0,6.79688 q 2.46093,-4.02344 5.89843,-5.9375 3.4375,-1.91406 8.16407,-1.91406 4.76562,0 8.08593,2.42187 3.35938,2.42188 4.96094,7.03125 z"
         style="font-style:normal;font-variant:normal;font-weight:normal;font-stretch:normal;font-size:80px;line-height:125%;font-family:'DejaVu Sans';-inkscape-font-specification:'DejaVu Sans, Normal';text-align:start;writing-mode:lr-tb;text-anchor:start;fill:#ffffff"
         id="path3408" />
      <path
         d="m 478.71094,234.14423 0,3.51562 -33.04688,0 q 0.46875,7.42188 4.45313,11.32813 4.02343,3.86719 11.17187,3.86719 4.14063,0 8.00781,-1.01563 3.90625,-1.01562 7.73438,-3.04687 l 0,6.79687 q -3.86719,1.64063 -7.92969,2.5 -4.0625,0.85938 -8.24219,0.85938 -10.46875,0 -16.60156,-6.09375 -6.09375,-6.09375 -6.09375,-16.48438 0,-10.74219 5.78125,-17.03125 5.82031,-6.32812 15.66406,-6.32812 8.82813,0 13.94532,5.70312 5.15625,5.66406 5.15625,15.42969 z m -7.1875,-2.10938 q -0.0781,-5.89843 -3.32032,-9.41406 -3.20312,-3.51562 -8.51562,-3.51562 -6.01563,0 -9.64844,3.39843 -3.59375,3.39844 -4.14062,9.57032 l 25.625,-0.0391 z"
         style="font-style:normal;font-variant:normal;font-weight:normal;font-stretch:normal;font-size:80px;line-height:125%;font-family:'DejaVu Sans';-inkscape-font-specification:'DejaVu Sans, Normal';text-align:start;writing-mode:lr-tb;text-anchor:start;fill:#ffffff"
         id="path3410" />
      <path
         d="m 519.29687,220.70673 0,-23.67188 7.1875,0 0,60.78125 -7.1875,0 0,-6.5625 q -2.26562,3.90625 -5.74218,5.82032 -3.4375,1.875 -8.28125,1.875 -7.92969,0 -12.92969,-6.32813 -4.96094,-6.32812 -4.96094,-16.64062 0,-10.3125 4.96094,-16.64063 5,-6.32812 12.92969,-6.32812 4.84375,0 8.28125,1.91406 3.47656,1.875 5.74218,5.78125 z m -24.49218,15.27344 q 0,7.92968 3.24218,12.46093 3.28125,4.49219 8.98438,4.49219 5.70312,0 8.98437,-4.49219 3.28125,-4.53125 3.28125,-12.46093 0,-7.92969 -3.28125,-12.42188 -3.28125,-4.53125 -8.98437,-4.53125 -5.70313,0 -8.98438,4.53125 -3.24218,4.49219 -3.24218,12.42188 z"
         style="font-style:normal;font-variant:normal;font-weight:normal;font-stretch:normal;font-size:80px;line-height:125%;font-family:'DejaVu Sans';-inkscape-font-specification:'DejaVu Sans, Normal';text-align:start;writing-mode:lr-tb;text-anchor:start;fill:#ffffff"
         id="path3412" />
      <path
         d="m 586.5625,207.26923 -10.70313,29.02344 21.44532,0 -10.74219,-29.02344 z m -4.45313,-7.77344 8.94532,0 22.22656,58.32031 -8.20313,0 -5.3125,-14.96093 -26.28906,0 -5.3125,14.96093 -8.32031,0 22.26562,-58.32031 z"
         style="font-style:normal;font-variant:normal;font-weight:normal;font-stretch:normal;font-size:80px;line-height:125%;font-family:'DejaVu Sans';-inkscape-font-specification:'DejaVu Sans, Normal';text-align:start;writing-mode:lr-tb;text-anchor:start;fill:#ffffff"
         id="path3414" />
      <path
         d="m 627.14844,201.64423 0,12.42187 14.80468,0 0,5.58594 -14.80468,0 0,23.75 q 0,5.35156 1.44531,6.875 1.48437,1.52344 5.97656,1.52344 l 7.38281,0 0,6.01562 -7.38281,0 q -8.32031,0 -11.48437,-3.08593 -3.16407,-3.125 -3.16407,-11.32813 l 0,-23.75 -5.27343,0 0,-5.58594 5.27343,0 0,-12.42187 7.22657,0 z"
         style="font-style:normal;font-variant:normal;font-weight:normal;font-stretch:normal;font-size:80px;line-height:125%;font-family:'DejaVu Sans';-inkscape-font-specification:'DejaVu Sans, Normal';text-align:start;writing-mode:lr-tb;text-anchor:start;fill:#ffffff"
         id="path3416" />
      <path
         d="m 651.44531,214.0661 7.1875,0 0,43.75 -7.1875,0 0,-43.75 z m 0,-17.03125 7.1875,0 0,9.10157 -7.1875,0 0,-9.10157 z"
         style="font-style:normal;font-variant:normal;font-weight:normal;font-stretch:normal;font-size:80px;line-height:125%;font-family:'DejaVu Sans';-inkscape-font-specification:'DejaVu Sans, Normal';text-align:start;writing-mode:lr-tb;text-anchor:start;fill:#ffffff"
         id="path3418" />
      <path
         d="m 695.78125,197.03485 0,5.97657 -6.875,0 q -3.86719,0 -5.39063,1.5625 -1.48437,1.5625 -1.48437,5.625 l 0,3.86718 11.83594,0 0,5.58594 -11.83594,0 0,38.16406 -7.22656,0 0,-38.16406 -6.875,0 0,-5.58594 6.875,0 0,-3.04687 q 0,-7.30469 3.39843,-10.625 3.39844,-3.35938 10.78125,-3.35938 l 6.79688,0 z"
         style="font-style:normal;font-variant:normal;font-weight:normal;font-stretch:normal;font-size:80px;line-height:125%;font-family:'DejaVu Sans';-inkscape-font-specification:'DejaVu Sans, Normal';text-align:start;writing-mode:lr-tb;text-anchor:start;fill:#ffffff"
         id="path3420" />
    </g>
    <g
       style="font-style:normal;font-variant:normal;font-weight:normal;font-stretch:normal;font-size:40px;line-height:125%;font-family:'DejaVu Sans';-inkscape-font-specification:'DejaVu Sans, Normal';text-align:start;letter-spacing:0px;word-spacing:0px;writing-mode:lr-tb;text-anchor:start;fill:#000000;fill-opacity:1;stroke:none;stroke-width:1px;stroke-linecap:butt;stroke-linejoin:miter;stroke-opacity:1"
       id="flowRoot3344" />
  </g>
</svg>
